<?xml version="1.0" encoding="utf-8"?>
<!-- Generator: Adobe Illustrator 26.0.1, SVG Export Plug-In . SVG Version: 6.00 Build 0)  -->
<svg version="1.1" id="レイヤー_2_00000142162872411518355760000004772773407440979850_"
	 xmlns="http://www.w3.org/2000/svg" xmlns:xlink="http://www.w3.org/1999/xlink" x="0px" y="0px" viewBox="0 0 512 512"
	 style="enable-background:new 0 0 512 512;" xml:space="preserve">
<style type="text/css">
	.st0{fill:#FFFFFF;stroke:#000000;stroke-width:5;stroke-miterlimit:10;}
	.st1{fill:none;stroke:#000000;stroke-width:5;stroke-miterlimit:10;}
	.st2{display:none;fill:none;stroke:#000000;stroke-width:5;stroke-miterlimit:10;}
</style>
<path class="st0" d="M219.9,40.8l221.3,209.9l0,0L256.6,445.4c-31.4,33.1-83.7,34.5-116.8,3.1L38.3,352.3
	c-33.1-31.4-34.5-83.7-3.1-116.8L219.9,40.8C219.9,40.8,219.9,40.8,219.9,40.8z"/>
<line class="st1" x1="17.1" y1="316.1" x2="379" y2="315.7"/>
<path class="st2" d="M438.5,282.8c-9.7,24.3-16.1,49.8-19,75.8c-3.4,31.5,0.8,41.6,5,48c7.7,11.7,23.6,23.4,43,21.5
	c12.8-1.3,27.3-8.7,34.1-21.5c17.7-33.1-24.8-85.3-36.7-99.9C457.5,297.5,444,287.8,438.5,282.8z"/>
</svg>
