<?xml version="1.0" encoding="utf-8"?>
<!-- Generator: Adobe Illustrator 26.0.1, SVG Export Plug-In . SVG Version: 6.00 Build 0)  -->
<svg version="1.1" id="レイヤー_2_00000059268487475753593280000003363639886082867597_"
	 xmlns="http://www.w3.org/2000/svg" xmlns:xlink="http://www.w3.org/1999/xlink" x="0px" y="0px" viewBox="0 0 512 512"
	 style="enable-background:new 0 0 512 512;" xml:space="preserve">
<style type="text/css">
	.st0{fill:#FFFFFF;stroke:#000000;stroke-width:5;stroke-miterlimit:10;}
	.st1{fill:none;stroke:#000000;stroke-width:5;stroke-miterlimit:10;}
</style>
<path class="st0" d="M398.1,201.1l65.5-69.1c28.1-29.7,26.9-76.6-2.8-104.7c-29.7-28.1-76.6-26.9-104.7,2.8l-65.5,69.1
	c-2.4,2.5-4.5,5.2-6.5,8c-15.6-14.1-39.7-13.2-54.2,2.1c-14.8,15.6-14.1,40.1,1.5,54.9c0,0,0,0,0,0l12.8,12.1l-8.4-7.9L92,321.6
	l0.1,0.1l-0.2,0.2c-21.4,24.8-26.6,57.5-15.9,83.6l-46.9,73.6l-1,1.2l0.2,0.2L56.7,505l1.1-1.3l66.9-58.1c25,5,53.1-3.6,73.5-24.4
	l0.4,0.4l143.3-152.7l9.9,9.3c15.6,14.8,40.1,14.1,54.9-1.5c0,0,0,0,0,0c14.8-15.6,14.1-40.1-1.5-54.9c0,0,0,0,0,0L390.5,208
	C393.2,205.9,395.7,203.6,398.1,201.1z"/>
<line class="st1" x1="244.1" y1="176.3" x2="341.8" y2="268.9"/>
<line class="st1" x1="357.7" y1="347.7" x2="357.7" y2="348.3"/>
</svg>
