<?xml version="1.0" encoding="utf-8"?>
<!-- Generator: Adobe Illustrator 26.0.1, SVG Export Plug-In . SVG Version: 6.00 Build 0)  -->
<svg version="1.1" id="レイヤー_2_00000113334063091991447510000017145824830258203812_"
	 xmlns="http://www.w3.org/2000/svg" xmlns:xlink="http://www.w3.org/1999/xlink" x="0px" y="0px" viewBox="0 0 512 512"
	 style="enable-background:new 0 0 512 512;" xml:space="preserve">
<path d="M241.2,334.1c4.3-4.4,6.9-9.8,6.9-15.7c0-3.2-0.8-6.3-2.2-9.2c3.3,0.1,6.7,0.2,10.1,0.2c64.8,0,125.6-14.2,171.5-40
	c46.2-26,71.6-60.8,71.6-97.7c0-36.9-25.4-71.6-71.6-97.6c-45.9-25.8-106.8-40-171.5-40s-125.6,14.2-171.5,40
	c-46.2,26-71.6,60.8-71.6,97.8c0,30.6,17.3,59.5,49.9,83.6c30.3,22.4,73,39.4,120.4,47.8c-4.1,4.3-6.5,9.6-6.5,15.2
	c0,14.7,16,26.6,35.7,26.6c9.8,0,18.7-3,25.1-7.8 M237.5,337c12.3,6.3,51.5,29,45,58.5c-4.6,21.3-30.5,35.1-44.5,42.5
	c-37.3,19.8-76.3,24.5-102.4,25.1c-26.9,0.5-53.9-3.1-77.9-10.2l-1.7,3.8c23.1,6.9,48.9,10.6,74.8,10.6c1.6,0,3.3,0,4.9-0.1
	c26.7-0.6,66.7-5.4,105-25.7c14.6-7.7,41.7-22.2,46.7-45.2c3.3-15.1-3.9-30.7-20.7-45.1c-9.4-8.1-19.6-14-25.5-17 M236.9,331.9
	c-0.2-0.1-0.4-0.2-0.5-0.3l-1,1.5c-5.6,4.6-13.9,7.5-23.1,7.5c-16.9,0-30.7-9.9-30.7-22.1c0-12.2,13.8-22.1,30.7-22.1
	s30.7,9.9,30.7,22.1C243.1,323.6,240.8,328.2,236.9,331.9z M256,305.1c-4.4,0-8.8-0.1-13.1-0.3c-6.3-7.7-17.6-12.8-30.5-12.8
	c-9.6,0-18.4,2.9-24.8,7.5c-48-8.1-91.2-24.9-121.6-47.5c-31.5-23.3-48.1-51-48.1-80.2C17.9,98.3,124.7,38.6,256,38.6
	s238.1,59.8,238.1,133.3C494.1,245.3,387.3,305.1,256,305.1z"/>
</svg>
