<?xml version="1.0" encoding="utf-8"?>
<!-- Generator: Adobe Illustrator 26.0.1, SVG Export Plug-In . SVG Version: 6.00 Build 0)  -->
<svg version="1.1" id="レイヤー_2_00000083794252477989360160000001092401149608467382_"
	 xmlns="http://www.w3.org/2000/svg" xmlns:xlink="http://www.w3.org/1999/xlink" x="0px" y="0px" viewBox="0 0 512 512"
	 style="enable-background:new 0 0 512 512;" xml:space="preserve">
<style type="text/css">
	.st0{fill:#FFFFFF;stroke:#000000;stroke-width:5;stroke-miterlimit:10;}
</style>
<path class="st0" d="M479.2,38.6l-19.3-18.3c-22.4-21.4-57.9-20.4-79.2,2L80.3,339.1c-2.5,0.8-4.7,2.6-5.8,5.3L15.8,495.1
	c-0.8,2.2-0.8,4.7,0.2,6.8c2,4.5,7.3,6.5,11.8,4.5l146.3-66.1l0.7,0.7l2-2.2c0.4-0.3,0.8-0.6,1.1-1c0.4-0.4,0.7-0.8,1-1.2
	l302.4-318.9C502.6,95.3,501.7,59.8,479.2,38.6z"/>
</svg>
