<?xml version="1.0" encoding="utf-8"?>
<!-- Generator: Adobe Illustrator 26.0.1, SVG Export Plug-In . SVG Version: 6.00 Build 0)  -->
<svg version="1.1" id="レイヤー_2_00000031896338581567109810000008930427549945443758_"
	 xmlns="http://www.w3.org/2000/svg" xmlns:xlink="http://www.w3.org/1999/xlink" x="0px" y="0px" viewBox="0 0 512 512"
	 style="enable-background:new 0 0 512 512;" xml:space="preserve">
<path class="st0" d="M256,444.3c-46.5,0-79.1-16.3-97.8-48.8s-28.1-79-28.1-139.2c0-60.2,9.4-106.7,28.1-139.5
	c18.7-32.7,51.3-49.1,97.8-49.1c46.5,0,79.1,16.4,97.9,49.1c18.6,32.7,27.9,79.2,27.9,139.5c0,60.3-9.4,106.7-28.1,139.2
	C335.1,428,302.5,444.3,256,444.3z"/>
<path class="st0" d="M255.6,385.8c31.9,0,53.1-17.5,53.1-123.9c-1.2-63.7,0.1-135-53.1-135l0.9-0.1c-53.1,0-51.9,71.2-53.1,135
	c0,106.5,21.2,123.9,53.1,123.9L255.6,385.8z"/>
</svg>
