<?xml version="1.0" encoding="utf-8"?>
<!-- Generator: Adobe Illustrator 26.0.1, SVG Export Plug-In . SVG Version: 6.00 Build 0)  -->
<svg version="1.1" id="layer_1" xmlns="http://www.w3.org/2000/svg" xmlns:xlink="http://www.w3.org/1999/xlink" x="0px" y="0px"
	 viewBox="0 0 512 512" style="enable-background:new 0 0 512 512;" xml:space="preserve">
	<path d="M294.14,148.63c-8.56-10.24-20.81-15.36-36.76-15.36c-21.82,0-36.67,8.14-44.56,24.42c-4.53,9.4-7.22,24.34-8.06,44.81
		h-69.74c1.17-31.05,6.8-56.14,16.87-75.27c19.13-36.42,53.12-54.63,101.96-54.63c38.6,0,69.31,10.7,92.14,32.1
		c22.82,21.4,34.24,49.72,34.24,84.97c0,27.02-8.06,51.02-24.17,72c-10.57,13.93-27.95,29.46-52.11,46.57l-28.7,20.39
		c-17.96,12.76-30.25,21.99-36.88,27.69c-6.63,5.71-12.21,12.34-16.74,19.89H381v63.19H131c0.67-26.18,6.29-50.1,16.87-71.75
		c10.24-24.33,34.4-50.1,72.51-77.29c33.06-23.67,54.46-40.62,64.2-50.85c14.94-15.94,22.41-33.4,22.41-52.37
		C306.98,171.71,302.7,158.87,294.14,148.63z"/>
</svg>
