<?xml version="1.0" encoding="utf-8"?>
<!-- Generator: Adobe Illustrator 26.0.1, SVG Export Plug-In . SVG Version: 6.00 Build 0)  -->
<svg version="1.1" id="layer_1" xmlns="http://www.w3.org/2000/svg" xmlns:xlink="http://www.w3.org/1999/xlink" x="0px" y="0px"
	 viewBox="0 0 512 512" style="enable-background:new 0 0 512 512;" xml:space="preserve">
	<path d="M214.84,142.58c-8.06,10.74-11.92,25.09-11.58,43.05h-66.97c0.67-18.13,3.78-35.33,9.31-51.61
		c5.87-14.26,15.11-27.44,27.69-39.53c9.4-8.56,20.56-15.11,33.48-19.64c12.92-4.53,28.78-6.8,47.58-6.8
		c34.91,0,63.06,9.02,84.46,27.06c21.4,18.04,32.1,42.26,32.1,72.63c0,21.49-6.38,39.61-19.13,54.38
		c-8.06,9.23-16.45,15.53-25.17,18.88c6.54,0,15.94,5.62,28.2,16.87c18.29,16.95,27.44,40.12,27.44,69.48
		c0,30.88-10.7,58.03-32.1,81.44c-21.4,23.41-53.08,35.12-95.04,35.12c-51.7,0-87.61-16.87-107.75-50.6
		c-10.57-17.96-16.45-41.45-17.62-70.49h70.49c0,14.6,2.35,26.69,7.05,36.25c8.73,17.62,24.59,26.43,47.58,26.43
		c14.1,0,26.39-4.82,36.88-14.48c10.49-9.65,15.73-23.54,15.73-41.67c0-24-9.74-40.03-29.2-48.08c-11.08-4.53-28.54-6.8-52.37-6.8
		v-51.36c23.33-0.33,39.61-2.6,48.84-6.8c15.94-7.05,23.92-21.31,23.92-42.8c0-13.93-4.07-25.26-12.21-33.99
		c-8.14-8.72-19.6-13.09-34.36-13.09C235.14,126.47,222.72,131.85,214.84,142.58z"/>
</svg>
