<?xml version="1.0" encoding="utf-8"?>
<!-- Generator: Adobe Illustrator 26.0.1, SVG Export Plug-In . SVG Version: 6.00 Build 0)  -->
<svg version="1.1" id="layer_1" xmlns="http://www.w3.org/2000/svg" xmlns:xlink="http://www.w3.org/1999/xlink" x="0px" y="0px"
	 viewBox="0 0 512 512" style="enable-background:new 0 0 512 512;" xml:space="preserve">
	<path d="M253.61,250.08c-8.73,0-16.28,1.09-22.66,3.27c-11.25,4.03-19.72,11.5-25.43,22.41l-64.45-3.02l25.68-201.65H367.9v60.92
		H218.61l-13.09,79.81c11.08-7.21,19.72-12,25.93-14.35c10.4-3.86,23.07-5.79,38.01-5.79c30.21,0,56.56,10.16,79.05,30.46
		c22.49,20.31,33.74,49.85,33.74,88.62c0,33.73-10.83,63.86-32.48,90.38c-21.65,26.52-54.04,39.78-97.18,39.78
		c-34.74,0-63.28-9.31-85.6-27.94c-22.32-18.63-34.74-45.06-37.26-79.3h71.5c2.85,15.61,8.31,27.65,16.36,36.13
		c8.06,8.48,19.8,12.71,35.25,12.71c17.79,0,31.34-6.25,40.66-18.76c9.32-12.5,13.97-28.24,13.97-47.2
		c0-18.63-4.37-34.36-13.09-47.2C285.66,256.5,272.07,250.08,253.61,250.08z"/>
</svg>
