<?xml version="1.0" encoding="utf-8"?>
<!-- Generator: Adobe Illustrator 26.0.1, SVG Export Plug-In . SVG Version: 6.00 Build 0)  -->
<svg version="1.1" id="layer_1" xmlns="http://www.w3.org/2000/svg" xmlns:xlink="http://www.w3.org/1999/xlink" x="0px" y="0px"
	 viewBox="0 0 512 512" style="enable-background:new 0 0 512 512;" xml:space="preserve">
<path class="st0" d="M271.4,198.6c32.4,0,59,11,79.7,33c20.7,22,31.1,50.1,31.1,84.3c0,34.1-10.2,64.1-30.5,90.1
	c-20.3,26-51.9,39-94.7,39c-46,0-79.9-19.2-101.7-57.6c-16.9-30-25.4-68.8-25.4-116.3c0-27.9,1.2-50.5,3.5-68
	c4.2-31.1,12.3-56.9,24.4-77.5c10.4-17.6,24-31.8,40.9-42.5c16.9-10.7,37.1-16.1,60.5-16.1c33.9,0,60.9,8.7,81.1,26.1
	c20.1,17.4,31.5,40.5,34,69.4h-71.5c0-5.9-2.3-12.3-6.8-19.4c-7.7-11.4-19.4-17.1-35-17.1c-23.3,0-39.9,13.1-49.9,39.3
	c-5.4,14.4-9.1,35.8-11.1,63.9c8.9-10.6,19.2-18.3,31-23.2C242.8,201,256.2,198.6,271.4,198.6z"/>
<path class="st0" d="M309.4,321.3c0,36.1-16.3,65.3-52.9,65.3c-31.9,0-53.5-29.3-54.6-65.3c-1.1-35.7,17.4-65.3,54.6-65.3
	C285.3,256,309.4,278.9,309.4,321.3z"/>
</svg>
