<?xml version="1.0" encoding="utf-8"?>
<!-- Generator: Adobe Illustrator 26.0.1, SVG Export Plug-In . SVG Version: 6.00 Build 0)  -->
<svg version="1.1" id="layer_1" xmlns="http://www.w3.org/2000/svg" xmlns:xlink="http://www.w3.org/1999/xlink" x="0px" y="0px"
	 viewBox="0 0 512 512" style="enable-background:new 0 0 512 512;" xml:space="preserve">
<path class="st0" d="M160.7,411.7c-21-21.5-31.5-47.6-31.5-78.3c0-20.5,4.7-39,14-55.6c9.3-16.6,22.9-29.1,40.9-37.5
	c-17.6-11.8-29.1-24.5-34.4-38.1c-5.3-13.7-7.9-26.5-7.9-38.4c0-26.5,10-49.1,30-67.8c20-18.7,48.2-28.1,84.6-28.1
	S321,77.2,341,95.9c20,18.7,30,41.3,30,67.8c0,11.9-2.6,24.7-7.9,38.4c-5.3,13.7-16.7,25.6-34.4,35.6c18,10.1,31.5,23.4,40.5,40
	s13.6,35.2,13.6,55.6c0,30.7-11.4,56.9-34.1,78.4c-22.7,21.6-54.5,32.4-95.3,32.4S181.7,433.4,160.7,411.7z"/>
<path class="st0" d="M302.2,170.2c0,31-19.5,46.7-44.8,46.7c-28.4,0-47-17.5-47-44.5c0-25.2,12.7-45.6,44.8-46.7
	C286.4,124.7,302.2,145,302.2,170.2z"/>
<path class="st0" d="M309,327.2c0.1,38.6-22.2,58.1-51.2,58.1c-32.6-0.1-53.9-21.9-54-55.5c-0.1-31.4,14.5-56.9,51.2-58.1
	C290.8,270.5,308.9,295.8,309,327.2z"/>
</svg>
