<?xml version="1.0" encoding="utf-8"?>
<!-- Generator: Adobe Illustrator 26.0.1, SVG Export Plug-In . SVG Version: 6.00 Build 0)  -->
<svg version="1.1" id="layer_1" xmlns="http://www.w3.org/2000/svg" xmlns:xlink="http://www.w3.org/1999/xlink" x="0px" y="0px"
	 viewBox="0 0 512 512" style="enable-background:new 0 0 512 512;" xml:space="preserve">
<path class="st0" d="M247.7,445.3c-27.4,0-51.9-8.1-73.8-24.3c-21.8-16.2-34.3-39.8-37.5-70.9h71.5c1.7,10.7,6.2,19.5,13.6,26.2
	c7.4,6.7,17.2,10.1,29.5,10.1c23.7,0,40.3-13.1,49.9-39.3c5.2-14.4,8.5-35.5,9.8-63.2c-6.5,8.2-13.5,14.5-20.9,18.9
	c-13.4,8.1-30,12.1-49.6,12.1c-29,0-54.8-10-77.3-30.1s-33.7-49-33.7-86.7c0-39.1,11.3-70.8,33.9-95c22.6-24.2,51.9-36.4,88-36.4
	c55.5,0,93.6,24.6,114.3,73.8c11.8,27.9,17.6,64.5,17.6,110c0,44.1-5.6,81-16.9,110.5C344.5,417.2,305.1,445.3,247.7,445.3z"/>
<path class="st0" d="M308.1,190c1.9,48.3-26.9,65.7-51.8,66.5c-38.4,1.2-54.4-25-54.4-63.3c0-34.7,13.2-66.5,51.8-66.5
	C288.8,126.6,306.7,154.2,308.1,190z"/>
</svg>
